<?xml version="1.0" encoding="UTF-8"?><svg id="Layer_1" xmlns="http://www.w3.org/2000/svg" viewBox="0 0 1000 1000"><path d="M764.08952,96.57332c0,86.3327-69.98657,156.31927-156.31819,156.31927V96.5744l-161.48275.01731L186.1351,697.01423l-88.37949,202.06466-1.81935,4.28396,157.17282.06383,1.8875-4.34779,88.254-202.06466,97.30009-223.67271c5.30736-10.44811,17.984-17.80225,32.77666-17.80225,19.57101,0,35.43683,12.87245,35.43683,28.75124,0,2.58336-.41974,5.08559-1.20622,7.46665l-75.30907,131.32515-54.60757,92.90794c-11.86204,17.71679-18.55519,37.48144-18.55519,59.06029,0,69.05188,69.71511,128.37614,154.82537,128.37614h94.39543l-.36681-280.34329v-248.13891h136.82831v528.4822h159.29533V96.57332h-139.97422Z"/></svg>