<?xml version="1.0" encoding="UTF-8"?><svg id="Layer_1" xmlns="http://www.w3.org/2000/svg" xmlns:xlink="http://www.w3.org/1999/xlink" viewBox="0 0 1284.09836 497.91308"><defs><clipPath id="clippath"><rect x="-66.37529" y="4.81883" width="1416.84894" height="489.15113" fill="none"/></clipPath><clipPath id="clippath-1"><rect x="-66.37529" y="4.81883" width="1416.8501" height="489.15113" fill="none"/></clipPath></defs><g clip-path="url(#clippath)"><g clip-path="url(#clippath-1)"><path d="M359.80173,105.4475c0,30.93374-25.07738,56.01108-56.01108,56.01108v-56.01108l-57.86049.00596-93.2165,215.13895-31.66683,72.40204-.19517.42249,56.31694.02261.21896-.4451,31.62279-72.40204,34.86335-80.14469c1.90174-3.74398,6.44429-6.37883,11.74491-6.37883,7.01195,0,12.69693,4.61276,12.69693,10.30251,0,.9247-.14992,1.82202-.43197,2.6753l-26.98387,47.05455-19.56727,33.29008c-4.24979,6.34788-6.6478,13.43005-6.6478,21.16199,0,24.74294,24.84768,44.88741,55.34346,44.88741h33.82323v-188.24911h49.02769v188.24911h57.07739V105.4475h-50.15468Z"/><path d="M1079.81502,386.5903v-17.30256c0-1.29957.1476-2.5194.44272-3.66188.2952-1.14129.75811-2.12548,1.38765-2.95258.62954-.82711,1.42687-1.46618,2.39207-1.91961.96396-.45223,2.11598-.67953,3.45482-.67953h1.94935v-4.78293c-.23687-.11782-.601-.22612-1.09253-.32489-.49269-.09759-1.0342-.14757-1.62445-.14757-1.3793,0-2.5396.28563-3.48453.85686-.94493.57005-1.69352,1.29838-2.24455,2.18498-.55095.88542-.98415,1.82083-1.29838,2.80502h-.4141l-.4725-5.13876h-4.19259v31.06346h5.19701ZM1053.38813,386.73786c1.27819-.37368,2.43972-.95325,3.48336-1.74108,1.04372-.78784,1.97913-1.8113,2.80501-3.0716h.41417l.47243,4.66512h4.19266v-31.06346h-5.19708v18.24868c0,1.8113-.40342,3.3953-1.21027,4.75437-.80808,1.35788-1.84105,2.39206-3.10013,3.10015-1.26032.70929-2.63845,1.06275-4.13433,1.06275-.94493,0-1.82202-.09759-2.6277-.29514-.80808-.19636-1.50663-.53077-2.09695-1.00324-.59025-.47246-1.04372-1.12225-1.35787-1.94935-.31539-.8271-.4725-1.88984-.4725-3.18941v-20.7288h-5.19701v21.43809c0,3.81896.90563,6.49545,2.7169,8.03185,1.81011,1.5352,4.21169,2.3028,7.20476,2.3028,1.45549,0,2.82404-.18684,4.10455-.56172M1029.23432,387.15201c.57005-.09877,1.13052-.20707,1.68277-.32489.55095-.11782,1.02345-.27491,1.41736-.47247v-3.42505h-3.30722c-.98423,0-1.65299-.24516-2.00768-.73904-.35461-.4915-.53199-1.22935-.53199-2.21355v-20.07901h5.84689v-4.37117h-5.84689v-8.68044h-4.1331l-.94493,8.68044h-4.13433v4.37117h4.01528v20.84662c0,1.14248.19641,2.21474.59148,3.21798.39275,1.00442,1.04255,1.8113,1.94819,2.42181.90563.60932,2.16472.91517,3.77972.91517.51173,0,1.05316-.04998,1.62445-.14757M993.41645,386.5903v-9.80269l5.31613-5.3744,8.62212,15.17709h5.96347l-11.22004-19.01509,10.6298-12.04836h-6.14201l-13.16946,15.05926v-26.69229h-5.19585v42.69648h5.19585ZM959.04703,363.14574c.66877-1.37811,1.63273-2.40158,2.89421-3.0716,1.25916-.66882,2.79433-1.00323,4.6056-1.00323,1.21986,0,2.31239.1678,3.27751.50221s1.81127.8759,2.5396,1.62327c.72833.74856,1.28887,1.71253,1.68277,2.89427.39398,1.18056.59148,2.63841.59148,4.36998h-16.8313c.15711-2.16475.57005-3.93679,1.24013-5.3149M972.15693,386.47248c1.65415-.551,3.05132-1.3186,4.19382-2.3028,1.14127-.98419,2.00768-2.17547,2.59792-3.57262.59032-1.39716.90563-2.92403.94493-4.57705h-5.07803c-.04053,1.02347-.23687,1.96839-.59148,2.83477-.35345.86637-.87593,1.61493-1.56496,2.24329-.6891.63074-1.53525,1.11392-2.53967,1.44714-1.00319.3356-2.17547.50221-3.51307.50221-1.96962,0-3.60242-.36297-4.90196-1.09249-1.29954-.72833-2.27302-1.88984-2.92283-3.48455-.64981-1.5947-1.01394-3.63212-1.09253-6.11225h22.32234v-2.48012c0-3.3465-.50105-6.13129-1.50547-8.35673-1.00442-2.22307-2.49078-3.89751-4.45924-5.01976-1.96838-1.12225-4.40919-1.68277-7.3225-1.68277-3.1894,0-5.84689.58076-7.97238,1.74228-2.12666,1.16151-3.73091,2.93354-4.81269,5.31489-1.0841,2.38254-1.62445,5.44343-1.62445,9.18266,0,3.70115.54034,6.75369,1.62445,9.15409,1.08178,2.40158,2.67652,4.18432,4.78298,5.34464,2.10639,1.16033,4.69487,1.74227,7.76646,1.74227,2.12549,0,4.01528-.27609,5.66835-.8271M943.66287,387.15201c.56998-.09877,1.13175-.20707,1.68394-.32489.54979-.11782,1.02229-.27491,1.4162-.47247v-3.42505h-3.30606c-.98539,0-1.65423-.24516-2.00884-.73904-.35345-.4915-.53076-1.22935-.53076-2.21355v-20.07901h5.84565v-4.37117h-5.84565v-8.68044h-4.13433l-.94493,8.68044h-4.13317v4.37117h4.01536v20.84662c0,1.14248.19634,2.21474.59025,3.21798.39275,1.00442,1.04255,1.8113,1.94935,2.42181.90447.60932,2.16479.91517,3.77972.91517.51056,0,1.052-.04998,1.62328-.14757M924.91317,355.52685h-5.19708v31.06345h5.19708v-31.06345ZM924.91317,343.89382h-5.19708v5.78735h5.19708v-5.78735ZM889.89387,386.5903v-18.24749c0-1.92912.38439-3.55239,1.15202-4.87219.76755-1.31861,1.80059-2.32304,3.10013-3.01209,1.29954-.68787,2.67652-1.03299,4.13433-1.03299.98299,0,1.87911.09878,2.68719.29514.80569.19755,1.49472.53077,2.066,1.00324.57005.47246,1.02345,1.12224,1.35903,1.94935.33326.8271.50105,1.88984.50105,3.1894v20.72762h5.19708v-21.4369c0-2.55867-.42369-4.58657-1.26983-6.0825-.84614-1.49593-2.00768-2.5789-3.48336-3.24773-1.47685-.67001-3.20008-1.00443-5.1673-1.00443-1.41736,0-2.72765.1678-3.92725.50222-1.20199.33441-2.29452.83662-3.27751,1.50545-.98539.67001-1.87076,1.5352-2.65865,2.59913h-.41294v-15.53173h-5.19708v42.69648h5.19708ZM869.75651,386.38441c1.57331-.61051,2.87285-1.46618,3.89754-2.56938,1.02345-1.10202,1.78032-2.4004,2.27302-3.89751.49153-1.49593.73908-3.10968.73908-4.84243h-5.07926c0,1.65302-.24638,3.07041-.73784,4.25215-.49269,1.18056-1.28051,2.0874-2.36229,2.71576-1.08418.63075-2.50989.94493-4.28193.94493-1.81127,0-3.34652-.39273-4.60676-1.18056-1.26032-.78664-2.21476-2.0279-2.86334-3.72019-.64981-1.69229-.97471-3.81896-.97471-6.37883v-1.24006c0-2.71576.33326-4.90193,1.00326-6.55495s1.63396-2.86453,2.89428-3.63212c1.25908-.76761,2.75504-1.152,4.48778-1.152s3.12991.28681,4.19382.85686c1.06275.57124,1.83989,1.43762,2.33258,2.59794.49146,1.1627.73784,2.64911.73784,4.45923h5.25657c0-1.92793-.24755-3.64164-.73908-5.13757-.49269-1.49593-1.24957-2.77646-2.27302-3.83919-1.02469-1.06274-2.31355-1.86961-3.86892-2.42063-1.55544-.551-3.39533-.8271-5.52082-.8271-3.03229,0-5.58147.59028-7.64864,1.77204-2.06593,1.18055-3.62261,2.97281-4.66509,5.37321-1.04372,2.40277-1.56496,5.4339-1.56496,9.09458,0,3.66187.52124,6.70371,1.56496,9.12434,1.04248,2.42181,2.57773,4.21407,4.60676,5.3744,2.02671,1.16033,4.5366,1.74227,7.52966,1.74227,2.20401,0,4.09388-.30585,5.66951-.91517M836.6854,386.5903v-17.30256c0-1.29957.1476-2.5194.44272-3.66188.29512-1.14129.75811-2.12548,1.38765-2.95258.62954-.82711,1.42687-1.46618,2.39207-1.91961.96396-.45223,2.11598-.67953,3.45482-.67953h1.94812v-4.78293c-.23563-.11782-.59976-.22612-1.09129-.32489-.49386-.09759-1.0342-.14757-1.62445-.14757-1.3793,0-2.53967.28563-3.48453.85686-.94493.57005-1.69352,1.29838-2.24455,2.18498-.55095.88542-.98415,1.82083-1.29838,2.80502h-.4141l-.4725-5.13876h-4.19266v31.06346h5.19708ZM803.61428,382.4274c-.86634-.33442-1.53518-.83663-2.00761-1.50545-.4725-.67002-.7093-1.53639-.7093-2.59914,0-1.65302.59976-2.93235,1.80175-3.838,1.19959-.90565,2.92283-1.53639,5.1673-1.88984,2.24331-.35465,4.96029-.53196,8.14969-.53196v2.59794c0,1.22102-.25706,2.34327-.76762,3.36673-.51289,1.02466-1.20192,1.89937-2.06717,2.6277-.86634.72953-1.86008,1.29005-2.98232,1.68396s-2.31348.59028-3.57263.59028c-1.14243,0-2.14685-.1678-3.0121-.50221M809.6968,386.70931c1.33768-.39392,2.54918-.95445,3.63212-1.68396,1.08178-.72714,1.9779-1.584,2.68719-2.5682h.41294c.11782.90565.35468,1.72205.7093,2.45038.35345.72952.86518,1.29956,1.53525,1.71252.66877.41415,1.51491.62004,2.5396.62004.86518,0,1.6328-.08807,2.3028-.26539.66884-.17732,1.27935-.38439,1.83037-.62004v-3.42505h-2.3028c-.51173,0-.94493-.14757-1.29962-.44271-.35461-.29633-.53076-.81758-.53076-1.56495v-16.8313c0-1.92911-.44388-3.58213-1.32932-4.96144-.88544-1.37692-2.20518-2.43966-3.95703-3.18822-1.75178-.74737-3.92725-1.12225-6.52517-1.12225-2.44205,0-4.60684.32489-6.49662.97468-1.88986.64979-3.35727,1.61494-4.39975,2.89308-1.04372,1.28053-1.56496,2.86453-1.56496,4.75437v.7081c0,.19755.02019.39511.05949.59147h5.01978v-.88661c0-.86518.20709-1.65302.62003-2.36231.41294-.7081,1.14127-1.28886,2.18498-1.74108,1.04248-.45224,2.4504-.67953,4.22237-.67953,1.85064,0,3.27751.2273,4.28193.67953,1.00326.45223,1.7018,1.09249,2.09571,1.91841.39391.8271.59148,1.8113.59148,2.95258v3.54406c-2.95377,0-5.68978.14757-8.20918.44271-2.52057.29513-4.69487.8271-6.52517,1.5947-1.83153.76761-3.25848,1.84105-4.28193,3.21798-1.02461,1.3793-1.53518,3.12991-1.53518,5.25658,0,1.69348.29512,3.10015.88544,4.2224.59025,1.12225,1.37806,1.99814,2.36229,2.6277.98415.63074,2.0469,1.08298,3.1894,1.35907,1.14127.27491,2.28253.41296,3.42504.41296,1.57447,0,3.03113-.19755,4.36997-.59027M781.61568,386.73786c1.55544-.37368,2.91331-.95325,4.07484-1.74108s2.05765-1.79107,2.68719-3.01209c.62954-1.21983.94493-2.65745.94493-4.31166,0-1.77084-.3642-3.19774-1.09253-4.28072-.72833-1.08297-1.69345-1.93864-2.89305-2.56938-1.20199-.62956-2.52057-1.152-3.95703-1.56496-1.43763-.41296-2.84547-.81639-4.22237-1.21031-1.29962-.4332-2.50989-.8271-3.63212-1.18175-1.12224-.35464-2.01836-.80688-2.68719-1.35788-.67-.551-1.00442-1.33765-1.00442-2.36231,0-.62955.13801-1.19008.4141-1.68277.27493-.49269.68787-.92469,1.24005-1.29956.55102-.37369,1.24005-.64979,2.06717-.8271.82595-.17732,1.81011-.26539,2.95261-.26539,1.77204,0,3.1597.2273,4.16288.67953,1.00442.45223,1.71255,1.04251,2.12673,1.77084.41294.72952.62003,1.48641.62003,2.27424v.64979h5.07803c.0393-.11901.05949-.28563.05949-.50222v-.67953c0-1.14129-.2368-2.21474-.70806-3.21797-.4725-1.00443-1.20199-1.89937-2.18622-2.6872-.98415-.78784-2.21353-1.39716-3.69038-1.83153-1.47692-.432-3.19899-.64859-5.16737-.64859-1.85056,0-3.5345.18684-5.04948.56053-1.51615.37488-2.80501.9354-3.86776,1.68277-1.06275.74856-1.88035,1.65421-2.45156,2.71695s-.85566,2.28376-.85566,3.66188c0,1.53519.30464,2.80501.91515,3.80825.61051,1.00443,1.41736,1.82201,2.42185,2.45156,1.00319.62955,2.13494,1.16152,3.39526,1.59471,1.25908.43319,2.5194.82592,3.77972,1.18055,1.49588.43319,2.93234.84733,4.31048,1.24006,1.37806.39392,2.48962.93541,3.33693,1.62446.84614.68906,1.26983,1.68277,1.26983,2.98234,0,1.06274-.3249,1.93983-.97464,2.6277-.64981.68906-1.52573,1.20198-2.6277,1.5352-1.10321.3356-2.3028.50221-3.60242.50221-1.49711,0-2.85498-.15709-4.07484-.47246-1.22095-.31418-2.1754-.86519-2.8645-1.65302-.68903-.78784-1.05323-1.86962-1.09246-3.24892v-.35345c0-.11902.01903-.25587.05949-.41415h-5.13759c-.04046.11782-.05949.26539-.05949.4427v.56172c0,1.45666.27493,2.75623.82711,3.89751.55102,1.14248,1.35787,2.12549,2.42062,2.95259s2.40159,1.45666,4.01652,1.88984c1.61377.43319,3.48336.64978,5.61002.64978,1.8494,0,3.55237-.18684,5.10781-.56172M755.21857,387.15201c.57005-.09877,1.13052-.20707,1.68277-.32489.55095-.11782,1.02345-.27491,1.41736-.47247v-3.42505h-3.30722c-.98423,0-1.65299-.24516-2.00768-.73904-.35461-.4915-.53199-1.22935-.53199-2.21355v-20.07901h5.84689v-4.37117h-5.84689v-8.68044h-4.1331l-.94493,8.68044h-4.13433v4.37117h4.01528v20.84662c0,1.14248.19641,2.21474.59148,3.21798.39275,1.00442,1.04255,1.8113,1.94819,2.42181.90563.60932,2.16472.91517,3.77972.91517.51173,0,1.05316-.04998,1.62445-.14757M734.46003,386.5903v-26.69229h5.96463v-4.37117h-5.96463v-4.90074c0-.90565.22612-1.60423.67952-2.09692.45224-.49151,1.17105-.73785,2.1552-.73785h3.12991v-3.72138c-.39391-.11782-.83663-.22493-1.32809-.32371-.49393-.09878-1.00442-.17732-1.53641-.23682-.53076-.0595-1.07226-.08806-1.62328-.08806-1.77204,0-3.15011.34512-4.13433,1.03298-.98415.68906-1.65299,1.57567-2.00768,2.65745-.35461,1.08298-.53192,2.23497-.53192,3.4548v4.96025h-4.6056v4.37117h4.6056v26.69229h5.19708ZM700.14879,382.4274c-.86634-.33442-1.53518-.83663-2.00761-1.50545-.4725-.67002-.7093-1.53639-.7093-2.59914,0-1.65302.59976-2.93235,1.80175-3.838,1.19959-.90565,2.92283-1.53639,5.16737-1.88984,2.24324-.35465,4.96021-.53196,8.14962-.53196v2.59794c0,1.22102-.25706,2.34327-.76762,3.36673-.51289,1.02466-1.20192,1.89937-2.06717,2.6277-.86634.72953-1.86008,1.29005-2.98232,1.68396s-2.31348.59028-3.57263.59028c-1.14243,0-2.14685-.1678-3.0121-.50221M706.23131,386.70931c1.33768-.39392,2.54918-.95445,3.63212-1.68396,1.08178-.72714,1.9779-1.584,2.68719-2.5682h.41294c.11782.90565.35468,1.72205.7093,2.45038.35345.72952.86518,1.29956,1.53525,1.71252.66877.41415,1.51491.62004,2.5396.62004.86518,0,1.6328-.08807,2.3028-.26539.66884-.17732,1.27935-.38439,1.83037-.62004v-3.42505h-2.3028c-.51173,0-.94493-.14757-1.29962-.44271-.35345-.29633-.53076-.81758-.53076-1.56495v-16.8313c0-1.92911-.44388-3.58213-1.32932-4.96144-.88544-1.37692-2.20518-2.43966-3.95703-3.18822-1.75178-.74737-3.92725-1.12225-6.52517-1.12225-2.44205,0-4.60684.32489-6.49662.97468-1.88986.64979-3.35603,1.61494-4.39975,2.89308-1.04248,1.28053-1.56496,2.86453-1.56496,4.75437v.7081c0,.19755.02027.39511.05949.59147h5.01978v-.88661c0-.86518.20709-1.65302.62003-2.36231.41294-.7081,1.14127-1.28886,2.18498-1.74108,1.04248-.45224,2.45156-.67953,4.22237-.67953,1.85064,0,3.27751.2273,4.28193.67953,1.00442.45223,1.7018,1.09249,2.09695,1.91841.39267.8271.59025,1.8113.59025,2.95258v3.54406c-2.95261,0-5.68978.14757-8.20918.44271-2.5194.29513-4.69487.8271-6.52517,1.5947-1.83153.76761-3.25848,1.84105-4.28193,3.21798-1.02461,1.3793-1.53518,3.12991-1.53518,5.25658,0,1.69348.29512,3.10015.88544,4.2224.59025,1.12225,1.37806,1.99814,2.36229,2.6277.98415.63074,2.0469,1.08298,3.1894,1.35907,1.14127.27491,2.28253.41296,3.42504.41296,1.57447,0,3.03113-.19755,4.36997-.59027M664.24295,386.5903v-18.24749c0-1.92912.38439-3.55239,1.15202-4.87219.76755-1.31861,1.80175-2.32304,3.10013-3.01209,1.29954-.68787,2.67768-1.03299,4.13433-1.03299.98299,0,1.87911.09878,2.68719.29514.80569.19755,1.49595.53077,2.06717,1.00324.57005.47246,1.02229,1.12224,1.35787,1.94935.33442.8271.50221,1.88984.50221,3.1894v20.72762h5.19708v-21.4369c0-2.55867-.42369-4.58657-1.26983-6.0825-.84731-1.49593-2.00884-2.5789-3.48453-3.24773-1.47692-.67001-3.19892-1.00443-5.1673-1.00443-1.41743,0-2.72649.1678-3.92732.50222-1.20192.33441-2.29445.83662-3.27744,1.50545-.98539.67001-1.87083,1.5352-2.65749,2.59913h-.4141v-15.53173h-5.19708v42.69648h5.19708ZM644.1056,386.38441c1.57447-.61051,2.87285-1.46618,3.89754-2.56938,1.02345-1.10202,1.78032-2.4004,2.27425-3.89751.49146-1.49593.73784-3.10968.73784-4.84243h-5.07926c0,1.65302-.24638,3.07041-.73784,4.25215-.49269,1.18056-1.28058,2.0874-2.36236,2.71576-1.08294.63075-2.50982.94493-4.28186.94493-1.81134,0-3.34652-.39273-4.6056-1.18056-1.26148-.78664-2.21476-2.0279-2.86457-3.72019-.64974-1.69229-.97464-3.81896-.97464-6.37883v-1.24006c0-2.71576.33442-4.90193,1.00442-6.55495.66884-1.65302,1.6328-2.86453,2.89312-3.63212,1.26025-.76761,2.7562-1.152,4.48895-1.152,1.73159,0,3.12991.28681,4.19266.85686,1.06275.57124,1.83981,1.43762,2.33251,2.59794.49153,1.1627.73792,2.64911.73792,4.45923h5.25657c0-1.92793-.24638-3.64164-.73784-5.13757-.49393-1.49593-1.2508-2.77646-2.27425-3.83919-1.02469-1.06274-2.31355-1.86961-3.86776-2.42063-1.55668-.551-3.39649-.8271-5.52199-.8271-3.03229,0-5.58147.59028-7.64748,1.77204-2.06717,1.18055-3.62254,2.97281-4.66625,5.37321-1.04372,2.40277-1.56496,5.4339-1.56496,9.09458,0,3.66187.52124,6.70371,1.56496,9.12434,1.04372,2.42181,2.57889,4.21407,4.60676,5.3744,2.02671,1.16033,4.5366,1.74227,7.52966,1.74227,2.20401,0,4.09388-.30585,5.66951-.91517M610.70958,386.73786c1.55544-.37368,2.91331-.95325,4.07484-1.74108,1.16037-.78784,2.05649-1.79107,2.68719-3.01209.62954-1.21983.94493-2.65745.94493-4.31166,0-1.77084-.36413-3.19774-1.09246-4.28072-.72956-1.08297-1.69352-1.93864-2.89428-2.56938-1.20083-.62956-2.5194-1.152-3.95587-1.56496-1.43763-.41296-2.84547-.81639-4.2236-1.21031-1.29831-.4332-2.50982-.8271-3.63089-1.18175-1.12224-.35464-2.01836-.80688-2.68719-1.35788-.67-.551-1.00442-1.33765-1.00442-2.36231,0-.62955.13801-1.19008.41294-1.68277.27609-.49269.68903-.92469,1.24129-1.29956.54979-.37369,1.24005-.64979,2.06593-.8271.82711-.17732,1.81134-.26539,2.95377-.26539,1.77088,0,3.15846.2273,4.16288.67953,1.00449.45223,1.71255,1.04251,2.12549,1.77084.41417.72952.62126,1.48641.62126,2.27424v.64979h5.07803c.0393-.11901.05949-.28563.05949-.50222v-.67953c0-1.14129-.2368-2.21474-.70922-3.21797-.4725-1.00443-1.20083-1.89937-2.18498-2.6872-.98423-.78784-2.21476-1.39716-3.69045-1.83153-1.47692-.432-3.19892-.64859-5.16737-.64859-1.85173,0-3.5345.18684-5.04948.56053-1.51615.37488-2.80501.9354-3.86776,1.68277-1.06391.74856-1.88151,1.65421-2.45156,2.71695-.57121,1.06274-.85566,2.28376-.85566,3.66188,0,1.53519.30348,2.80501.91515,3.80825.60935,1.00443,1.41743,1.82201,2.42062,2.45156,1.00442.62955,2.13624,1.16152,3.39649,1.59471,1.25916.43319,2.51824.82592,3.77972,1.18055,1.49472.43319,2.93234.84733,4.31048,1.24006,1.37806.39392,2.48962.93541,3.33693,1.62446.84614.68906,1.26983,1.68277,1.26983,2.98234,0,1.06274-.3249,1.93983-.97464,2.6277-.64981.68906-1.52573,1.20198-2.6277,1.5352-1.10321.3356-2.30404.50221-3.60242.50221-1.49711,0-2.85498-.15709-4.07477-.47246-1.22102-.31418-2.1767-.86519-2.86457-1.65302-.68903-.78784-1.05439-1.86962-1.09246-3.24892v-.35345c0-.11902.01903-.25587.05949-.41415h-5.13875c-.0393.11782-.05833.26539-.05833.4427v.56172c0,1.45666.27493,2.75623.82595,3.89751.55095,1.14248,1.35903,2.12549,2.42178,2.95259s2.40042,1.45666,4.01536,1.88984c1.6137.43319,3.48453.64978,5.61118.64978,1.8494,0,3.55237-.18684,5.10781-.56172M566.83136,381.68955c-1.20076-.70929-2.11591-1.88033-2.74552-3.51431-.6307-1.63278-.94493-3.78921-.94493-6.46689v-1.24006c0-2.59794.2952-4.7139.88544-6.34788.59148-1.63398,1.49595-2.83476,2.71697-3.60237,1.21979-.7676,2.7955-1.152,4.72458-1.152,1.10204,0,2.14576.17732,3.12991.53197.98299.35345,1.85056.96515,2.598,1.83034.74736.86638,1.33884,2.0279,1.77197,3.48455.43321,1.45666.64981,3.24773.64981,5.37321v.94492c0,2.44205-.28561,4.48898-.85689,6.142-.57121,1.65421-1.46617,2.9145-2.68596,3.77969-1.22102.86637-2.81576,1.29956-4.78414,1.29956-1.77204,0-3.25841-.35464-4.45924-1.06274M575.60224,386.02978c1.69229-.84615,3.07042-2.13501,4.13317-3.86776h.41417l.47243,4.42829h4.19266v-42.69648h-5.19708v15.53173h-.35461c-.70813-1.10202-1.52573-1.98862-2.4504-2.65745-.9259-.67001-1.97913-1.16151-3.1597-1.47689-1.18173-.31418-2.46108-.47247-3.83914-.47247-2.40159,0-4.50805.57124-6.31816,1.71253-1.81134,1.14248-3.2287,2.89427-4.25215,5.25658-1.02469,2.36112-1.53518,5.37321-1.53518,9.03509,0,3.85942.50098,6.99766,1.5054,9.41947,1.00442,2.42063,2.42185,4.20337,4.25215,5.34465,1.83037,1.14129,4.02487,1.71252,6.58473,1.71252,2.00768,0,3.85824-.42366,5.55169-1.26981M529.65689,386.5903v-18.24749c0-1.85057.38439-3.44528,1.15198-4.78412.76759-1.33765,1.80059-2.36231,3.10017-3.07041,1.29954-.70929,2.67648-1.06274,4.13433-1.06274.98299,0,1.87911.09878,2.686.29514.80688.19755,1.49592.53077,2.06717,1.00324.57005.47246,1.02345,1.12224,1.3591,1.94935.33318.8271.50098,1.88984.50098,3.1894v20.72762h5.19708v-21.4369c0-2.55867-.42369-4.58657-1.26983-6.0825-.84614-1.49593-2.00761-2.5789-3.48336-3.24773-1.47685-.67001-3.20008-1.00443-5.1673-1.00443-1.45785,0-2.82644.18685-4.10459.56053-1.28051.37488-2.44205.95564-3.48453,1.74228-1.04372.78783-1.97913,1.8113-2.80505,3.07159h-.41414l-.47247-4.6663h-4.19263v31.06346h5.19708ZM496.58578,382.4274c-.86641-.33442-1.53521-.83663-2.00768-1.50545-.47247-.67002-.7093-1.53639-.7093-2.59914,0-1.65302.5998-2.93235,1.80179-3.838,1.19959-.90565,2.92283-1.53639,5.16734-1.88984,2.24327-.35465,4.96025-.53196,8.14965-.53196v2.59794c0,1.22102-.25706,2.34327-.76759,3.36673-.51292,1.02466-1.20199,1.89937-2.06717,2.6277-.86641.72953-1.86012,1.29005-2.98235,1.68396s-2.31351.59028-3.57263.59028c-1.14247,0-2.14689-.1678-3.01206-.50221M502.66826,386.70931c1.33764-.39392,2.54915-.95445,3.63212-1.68396,1.08178-.72714,1.9779-1.584,2.68719-2.5682h.41294c.11782.90565.35465,1.72205.7093,2.45038.35345.72952.86518,1.29956,1.53521,1.71252.6688.41415,1.51495.62004,2.53963.62004.86518,0,1.63276-.08807,2.3028-.26539.6688-.17732,1.27931-.38439,1.83034-.62004v-3.42505h-2.3028c-.51173,0-.94493-.14757-1.29958-.44271-.35345-.29633-.53076-.81758-.53076-1.56495v-16.8313c0-1.92911-.44272-3.58213-1.32932-4.96144-.88544-1.37692-2.20521-2.43966-3.95703-3.18822-1.75178-.74737-3.92725-1.12225-6.52521-1.12225-2.44205,0-4.6068.32489-6.49662.97468-1.88986.64979-3.35603,1.61494-4.39971,2.89308-1.04252,1.28053-1.56496,2.86453-1.56496,4.75437v.7081c0,.19755.02023.39511.05949.59147h5.01974v-.88661c0-.86518.20709-1.65302.62006-2.36231.41294-.7081,1.14127-1.28886,2.18498-1.74108,1.04248-.45224,2.45156-.67953,4.22237-.67953,1.8506,0,3.27751.2273,4.28193.67953,1.00442.45223,1.703,1.09249,2.09691,1.91841.39271.8271.59028,1.8113.59028,2.95258v3.54406c-2.95261,0-5.68978.14757-8.20918.44271-2.5194.29513-4.69487.8271-6.52521,1.5947-1.83153.76761-3.25844,1.84105-4.2819,3.21798-1.02465,1.3793-1.53521,3.12991-1.53521,5.25658,0,1.69348.29516,3.10015.88544,4.2224s1.3781,1.99814,2.36229,2.6277c.98419.63074,2.04694,1.08298,3.1894,1.35907,1.1413.27491,2.28257.41296,3.42507.41296,1.57447,0,3.03113-.19755,4.36997-.59027M480.64108,343.89382h-5.19708v42.69766h5.19708v-42.69766Z"/><path d="M998.75409,268.17612c-3.94751-1.94221-6.84412-4.81982-8.68996-8.62452-1.8494-3.80349-2.77051-8.49597-2.77051-14.07626,0-1.35073.08331-2.82882.25227-4.43779.16547-1.60542.41773-3.6345.75571-6.08726.33442-2.44918.83786-5.53624,1.51142-9.25763,1.67682-8.6233,4.06889-15.85185,7.17854-21.68562,3.10493-5.83376,7.21667-10.27157,12.34112-13.31579,5.11972-3.04302,11.45931-4.56512,19.01628-4.56512,6.20985,0,11.2082.97468,14.98553,2.91687,3.77849,1.94577,6.58822,4.86266,8.43762,8.75065,1.84584,3.89156,2.77051,8.62332,2.77051,14.20241,0,1.5221-.04286,3.08706-.12617,4.69247-.08687,1.60899-.29512,3.59404-.62954,5.95991-.33798,2.37064-.84259,5.41368-1.51135,9.13148-1.51026,8.62332-3.8642,15.8947-7.05244,21.81178-3.19064,5.92065-7.34756,10.31561-12.46729,13.18846-5.12328,2.87761-11.45923,4.31166-19.01628,4.31166-6.04439,0-11.04274-.96992-14.98545-2.91569M1046.35726,292.14311c9.82288-4.22359,17.96545-10.69166,24.43113-19.40186,6.46212-8.70663,11.29028-19.82315,14.48208-33.35316,1.67682-4.56514,2.97876-9.16956,3.90349-13.82278.92111-4.64844,1.38518-9.51112,1.38518-14.58323,0-11.83415-2.2659-21.59875-6.8001-29.29499-4.53296-7.69146-11.25099-13.39791-20.1492-17.1193-8.90184-3.7178-19.89693-5.58028-32.99499-5.58028-14.10357,0-26.44592,2.36944-37.02451,7.10122-10.57866,4.73653-19.22816,12.04835-25.94139,21.93911-6.71795,9.89193-11.3343,22.53415-13.8537,37.91831-.6724,3.55119-1.17577,7.06192-1.51019,10.52505-.33921,3.46789-.50461,6.89175-.50461,10.27277,0,11.66634,2.26714,21.34883,6.8001,29.04031,4.5342,7.69626,11.2082,13.40268,20.02426,17.12048,8.81497,3.71662,19.68512,5.5791,32.61655,5.5791,13.60136,0,25.31294-2.11596,35.13588-6.34075M907.57973,297.85074c2.93474-.42485,5.79212-.93184,8.56263-1.52212,2.77051-.59504,5.07687-1.22458,6.92627-1.90174l4.28186-23.33508h-12.34112c-3.52622,0-6.08841-.76047-7.68191-2.28257-1.5983-1.52092-2.39331-3.71662-2.39331-6.59423,0-.6736.12617-1.90176.37844-3.67734.2511-1.7756.46059-3.17037.62961-4.18552l11.5854-65.18299h23.92776l4.7853-27.13859h-24.17886l6.8001-38.04448h-27.20164l-13.3491,38.04448h-17.63103l-4.53304,27.13859h16.37071l-12.08878,70.76328c-.33921,2.70742-.62961,4.98999-.88188,6.84771-.25227,1.86248-.37727,3.55119-.37727,5.07331,0,5.2423,1.00682,9.85148,3.02161,13.82278,2.0148,3.97486,5.20304,7.1012,9.57184,9.38377,4.36401,2.28257,10.23945,3.42386,17.62979,3.42386,2.5194,0,5.24589-.21303,8.18659-.63312M764.01567,295.82165c5.45414-1.7756,10.53464-4.31166,15.23779-7.60936,4.69843-3.29771,8.8149-7.05836,12.34112-11.28672h1.76369v18.51525h28.46079l23.42315-133.41026h-35.00979l-12.84456,73.04587c-1.00798,5.41367-2.64434,10.23229-4.9114,14.45708-2.26714,4.22836-4.99835,7.82359-8.18535,10.77974-3.1918,2.95973-6.71802,5.19946-10.57866,6.72038-3.86536,1.52212-7.89495,2.28377-12.09001,2.28377-3.36075,0-6.33951-.54744-8.94107-1.64945-2.60504-1.09725-4.61991-2.82882-6.04439-5.19946-1.42927-2.36589-2.14097-5.49222-2.14097-9.38377,0-1.68873.16423-3.42386.50337-5.19946.33442-1.7756.58676-3.67734.75571-5.70643l14.10481-80.14827h-35.00972l-14.60825,83.19129c-.50453,3.3846-1.00798,6.63827-1.51135,9.7646-.50344,3.13109-.75571,6.1313-.75571,9.00415,0,8.11633,1.67682,14.71056,5.03757,19.78269,3.35603,5.07331,7.97238,8.79469,13.85254,11.16055,5.87544,2.36589,12.59346,3.55001,20.14927,3.55001,5.87536,0,11.54255-.8866,17.00141-2.66221M509.50537,295.44082l13.09679-74.56797c1.17345-6.25269,3.23106-11.877,6.17056-16.86582,2.93594-4.98524,6.54903-8.8768,10.83093-11.66754,4.28186-2.78954,8.77204-4.18431,13.47527-4.18431,3.35603,0,6.20985.55102,8.56263,1.64825,2.35038,1.10203,4.15576,2.79074,5.41601,5.07331,1.25916,2.28257,1.8887,5.28633,1.8887,9.00295,0,1.52212-.12617,3.13109-.37844,4.81982-.2511,1.69229-.5463,3.55001-.88072,5.5791l-14.10481,81.1622h34.75745l13.09683-74.56797c1.17345-6.25269,3.2311-11.877,6.17179-16.86582,2.93474-4.98524,6.54776-8.8768,10.82969-11.66754,4.28193-2.78954,8.85419-4.18431,13.72637-4.18431,3.18824,0,5.95875.55102,8.31152,1.64825,2.35038,1.10203,4.15576,2.79074,5.41608,5.07331,1.25908,2.28257,1.88863,5.36965,1.88863,9.25763,0,1.52092-.08687,3.08706-.25227,4.69129-.16903,1.60897-.42013,3.42386-.75571,5.45294l-14.35591,81.1622h34.75745l15.11279-84.9657c.66884-3.21085,1.17221-6.25387,1.51019-9.13148.33442-2.87285.50461-5.66239.50461-8.36983,0-12.00312-3.27504-20.67049-9.82288-25.99727-6.549-5.32561-15.36396-7.98902-26.446-7.98902-5.54094,0-10.95702.8878-16.24577,2.66341-5.28984,1.7756-10.118,4.27238-14.48201,7.48201-4.36881,3.21443-8.3984,6.93462-12.09008,11.15939h-1.76369c-2.18375-7.438-6.17056-12.84808-11.96268-16.2327-5.79328-3.37982-13.05869-5.07211-21.78672-5.07211-5.54102,0-10.83093.8878-15.86734,2.66341-5.03764,1.7756-9.7408,4.27238-14.10484,7.48201-4.36877,3.21443-8.22937,6.93462-11.5866,11.15939h-1.76249v-18.26177h-28.71306l-23.17201,133.41026h35.00975Z"/></g></g></svg>