<?xml version="1.0" encoding="UTF-8"?>
<svg id="Layer_1" data-name="Layer 1" xmlns="http://www.w3.org/2000/svg" viewBox="0 0 1920 1080">
  <defs>
    <style>
      .cls-1 {
        font-family: Alfabet-RegularItalic, Alfabet;
        font-size: 27px;
        font-style: italic;
      }

      .cls-2 {
        letter-spacing: -.02em;
      }

      .cls-3 {
        letter-spacing: 0em;
      }

      .cls-4 {
        letter-spacing: 0em;
      }

      .cls-5 {
        font-family: Alfabet-Regular, Alfabet;
        font-size: 24px;
      }

      .cls-6 {
        fill: #f6f2eb;
      }

      .cls-7 {
        letter-spacing: -.01em;
      }

      .cls-8 {
        letter-spacing: -.01em;
      }
    </style>
  </defs>
  <rect class="cls-6" width="1920" height="1080"/>
  <g>
    <g>
      <g>
        <path d="m889.19,659.14l-6.63,41.85h-11.12l5.92-38.04c2.13-12.72-2.13-15.69-12.07-15.69-9.35,0-15.97,2.97-18.1,15.69l-6.03,38.04h-11.12l5.92-38.04c2.13-12.72-2.13-15.69-12.07-15.69-9.35,0-15.97,2.97-18.1,15.69l-6.03,38.04h-11.12l9.94-63h11.12l-1.89,11.88h.59c4.61-7.96,9.94-13.19,22.01-13.19s16.56,5.83,18.22,13.19h.59c4.97-7.96,10.53-13.19,22.6-13.19,13.02,0,19.88,7.13,17.39,22.47Z"/>
        <path d="m955.36,637.99h11.12l-9.94,63h-11.12l1.89-12.01h-.71c-4.5,7.96-9.82,13.19-21.77,13.19-13.13,0-20-7.02-17.51-22.47l6.62-41.72h11.12l-6.03,38.51c-2.01,12.24,2.25,15.22,12.19,15.22,9.23,0,15.97-2.97,17.99-15.22l6.15-38.51Z"/>
        <path d="m983.89,685.89l5.92-38.04h-10.53l1.54-9.86h10.53l2.25-14.27,11.59-2.5-2.6,16.76h16.56l-1.66,9.86h-16.45l-6.03,38.51c-.59,3.45.47,4.76,4.02,4.76h12.19l-1.54,9.87c-4.14.36-8.52.59-12.66.59-10.88,0-14.91-4.75-13.13-15.69Z"/>
        <path d="m1083.76,667.71l-.47,3.57c-2.37,17.95-13.84,30.91-34.08,30.91s-26.74-12.96-24.37-30.91l.47-3.57c2.37-17.95,13.96-31.03,34.19-31.03s26.62,13.08,24.25,31.03Zm-33.48,24.01c12.66,0,18.93-6.3,20.94-18.66l1.18-7.13c1.89-12.36-1.3-18.78-13.96-18.78s-18.93,6.42-20.94,18.78l-1.18,7.13c-2.01,12.36,1.18,18.66,13.96,18.66Z"/>
      </g>
      <path d="m1003.68,381.06c0,22.04-17.87,39.9-39.9,39.9v-39.9h-41.22s-66.41,153.27-66.41,153.27l-22.56,51.58-.14.3,40.12.02.16-.32,22.53-51.58,24.84-57.1c1.35-2.67,4.59-4.54,8.37-4.54,5,0,9.05,3.29,9.05,7.34,0,.66-.11,1.3-.31,1.91l-19.22,33.52-13.94,23.72c-3.03,4.52-4.74,9.57-4.74,15.08,0,17.63,17.7,31.98,39.43,31.98h24.1v-134.11h34.93v134.91h40.66v-205.96h-35.73Z"/>
    </g>
    <text class="cls-1" transform="translate(658.46 400.77)"><tspan x="0" y="0">a</tspan><tspan class="cls-3" x="16.66" y="0">r</tspan><tspan x="26.35" y="0">chitektur</tspan></text>
    <text class="cls-1" transform="translate(1182.06 400.77)"><tspan class="cls-7" x="0" y="0">k</tspan><tspan x="14.26" y="0">ontakt</tspan></text>
    <text class="cls-1" transform="translate(384.81 578.45)"><tspan x="0" y="0">landschafta</tspan><tspan class="cls-3" x="155.57" y="0">r</tspan><tspan x="165.27" y="0">chitektur</tspan></text>
    <text class="cls-1" transform="translate(517.98 487.4)"><tspan x="0" y="0">innena</tspan><tspan class="cls-3" x="88.78" y="0">r</tspan><tspan x="98.47" y="0">chitektur </tspan></text>
    <text class="cls-5" transform="translate(1182.06 455.31)"><tspan x="0" y="0">mail@mutog</tspan><tspan class="cls-4" x="145.77" y="0">r</tspan><tspan x="154.39" y="0">ou</tspan><tspan class="cls-2" x="183.05" y="0">p.</tspan><tspan x="202.92" y="0">ch </tspan><tspan x="0" y="35">+41 766 506 311</tspan></text>
    <text class="cls-5" transform="translate(1182.06 552.74)"><tspan x="0" y="0">Gubelst</tspan><tspan class="cls-8" x="89.45" y="0">r</tspan><tspan x="97.94" y="0">asse </tspan><tspan class="cls-2" x="158.56" y="0">3</tspan><tspan x="173.83" y="0">7 </tspan><tspan x="0" y="35">8050 Zürich </tspan></text>
  </g>
</svg>